<!DOCTYPE svg PUBLIC "-//W3C//DTD SVG 1.1//EN" "http://www.w3.org/Graphics/SVG/1.1/DTD/svg11.dtd">
<!-- Uploaded to: SVG Repo, www.svgrepo.com, Transformed by: SVG Repo Mixer Tools -->
<svg fill="#000000" width="800px" height="800px" viewBox="0 0 24 24" id="google-circle" data-name="Flat Color" xmlns="http://www.w3.org/2000/svg" class="icon flat-color">
<g id="SVGRepo_bgCarrier" stroke-width="0"/>
<g id="SVGRepo_tracerCarrier" stroke-linecap="round" stroke-linejoin="round"/>
<g id="SVGRepo_iconCarrier">
<circle id="primary" cx="12" cy="12" r="10" style="fill: #EA4335;"/>
<path id="secondary" d="M12,18A6,6,0,1,1,16.24,7.75a1,1,0,0,1-1.4,1.42A4,4,0,0,0,12,8a4,4,0,0,0-4,4,4,4,0,0,0,4,4,4,4,0,0,0,3.87-3H12a1,1,0,0,1,0-2h5a1,1,0,0,1,1,1A6,6,0,0,1,12,18Z" style="fill: #fff;"/>
</g>
</svg>