<!DOCTYPE svg PUBLIC "-//W3C//DTD SVG 1.1//EN" "http://www.w3.org/Graphics/SVG/1.1/DTD/svg11.dtd">
<!-- Uploaded to: SVG Repo, www.svgrepo.com, Transformed by: SVG Repo Mixer Tools -->
<svg fill="#dde5b6" version="1.1" id="Layer_1" xmlns="http://www.w3.org/2000/svg" xmlns:xlink="http://www.w3.org/1999/xlink" viewBox="0 0 512 512" xml:space="preserve" width="64px" height="64px" stroke="#dde5b6">
<g id="SVGRepo_bgCarrier" stroke-width="0"/>
<g id="SVGRepo_tracerCarrier" stroke-linecap="round" stroke-linejoin="round"/>
<g id="SVGRepo_iconCarrier"> <g> <g> <path d="M422.268,211.134v36.948H300.866v-36.948h-37.061c0.32-16.744,4.163-58.677,32.768-89.397 c21.654-23.254,53.261-35.731,94.025-37.145v36.81h89.732V31.67h-89.732v37.083c-45.443,1.465-80.989,15.676-105.724,42.311 c-32.564,35.066-36.72,81.214-36.953,100.07h-36.787v36.948H89.732v-36.948H0v89.732h89.732v-36.948h121.402v36.948h36.956 c-0.32,16.744-4.163,58.677-32.768,89.397c-22.567,24.234-60.987,36.757-104.477,37.26v-36.925H21.113v89.732h89.732v-36.974 c48.082-0.542,90.525-14.799,116.175-42.42c32.564-35.066,36.72-81.214,36.953-100.07h36.892v-36.948h121.402v36.948H512v-89.732 H422.268z M406.433,47.505h58.062v58.062h-58.062V47.505z M73.897,285.031H15.835v-58.062h58.062V285.031z M95.01,464.495H36.948 v-58.062H95.01V464.495z M285.031,285.031h-58.062v-58.062h58.062V285.031z M496.165,285.031h-58.062v-58.062h58.062V285.031z"/> </g> </g> <g> <g> <rect x="34.309" y="248.082" width="21.113" height="15.835"/> </g> </g> <g> <g> <rect x="245.443" y="248.082" width="21.113" height="15.835"/> </g> </g> <g> <g> <rect x="55.423" y="427.546" width="21.113" height="15.835"/> </g> </g> <g> <g> <rect x="424.907" y="68.619" width="21.113" height="15.835"/> </g> </g> <g> <g> <rect x="456.577" y="248.082" width="21.113" height="15.835"/> </g> </g> </g>
</svg>